<svg width="114" height="32" viewBox="0 0 114 32" fill="none" xmlns="http://www.w3.org/2000/svg">
<path d="M48.4088 9.38281C49.1171 9.38281 49.75 9.53646 50.3073 9.84375C50.8698 10.151 51.3073 10.5781 51.6198 11.125C51.9375 11.6667 52.0963 12.2786 52.0963 12.9609C52.0963 13.6797 51.9401 14.3177 51.6276 14.875C51.3151 15.4271 50.8802 15.8568 50.3229 16.1641C49.7708 16.4661 49.1432 16.6172 48.4401 16.6172H45.8776V20.0078H43.9323V9.38281H48.4088ZM48.3463 14.8828C48.6796 14.8828 48.9843 14.7995 49.2604 14.6328C49.5364 14.4609 49.7526 14.2292 49.9088 13.9375C50.0703 13.6458 50.151 13.3203 50.151 12.9609C50.151 12.638 50.0703 12.3359 49.9088 12.0547C49.7474 11.7734 49.526 11.5469 49.2448 11.375C48.9687 11.2031 48.664 11.1172 48.3307 11.1172H45.8776V14.8828H48.3463Z" fill="#012345"/>
<path d="M60.7448 15.8516C60.7448 16.0286 60.7317 16.2422 60.7057 16.4922H54.4323C54.4948 16.9193 54.6302 17.2891 54.8385 17.6016C55.052 17.9141 55.3151 18.1536 55.6276 18.3203C55.9453 18.4818 56.289 18.5625 56.6588 18.5625C57.1276 18.5625 57.5104 18.4714 57.8073 18.2891C58.1093 18.1016 58.3307 17.8333 58.4713 17.4844H60.5338C60.3932 17.9792 60.1458 18.4375 59.7916 18.8594C59.4375 19.2812 58.9921 19.6198 58.4557 19.875C57.9244 20.125 57.3385 20.25 56.6979 20.25C55.9114 20.25 55.2005 20.0599 54.5651 19.6797C53.9296 19.2995 53.4323 18.7839 53.0729 18.1328C52.7135 17.4818 52.5338 16.7682 52.5338 15.9922C52.5338 15.2161 52.7135 14.5026 53.0729 13.8516C53.4323 13.2005 53.9296 12.6849 54.5651 12.3047C55.2005 11.9245 55.9114 11.7344 56.6979 11.7344C57.4843 11.7344 58.1849 11.9219 58.7994 12.2969C59.414 12.6719 59.8906 13.1745 60.2291 13.8047C60.5729 14.4297 60.7448 15.112 60.7448 15.8516ZM58.8151 15.0312C58.789 14.7344 58.677 14.4609 58.4791 14.2109C58.2812 13.9557 58.0234 13.7552 57.7057 13.6094C57.3932 13.4583 57.0546 13.3828 56.6901 13.3828C56.1849 13.3828 55.7317 13.5234 55.3307 13.8047C54.9349 14.0807 54.6614 14.4896 54.5104 15.0312H58.8151Z" fill="#012345"/>
<path d="M64.0885 11.9766V13.3281C64.3802 12.8385 64.7682 12.4531 65.2526 12.1719C65.7421 11.8854 66.2734 11.7422 66.8463 11.7422C67.5911 11.7422 68.2604 11.9323 68.8541 12.3125C69.4531 12.6927 69.9192 13.2083 70.2526 13.8594C70.5911 14.5052 70.7604 15.2161 70.7604 15.9922C70.7604 16.7734 70.5911 17.4896 70.2526 18.1406C69.914 18.7865 69.4479 19.2995 68.8541 19.6797C68.2656 20.0599 67.6041 20.25 66.8698 20.25C66.2916 20.25 65.7604 20.112 65.276 19.8359C64.7916 19.5547 64.414 19.1797 64.1432 18.7109L64.1823 19.6406V22.75H62.2916V11.9766H64.0885ZM66.526 18.5078C66.9531 18.5078 67.3463 18.4062 67.7057 18.2031C68.0651 17.9948 68.3515 17.7005 68.5651 17.3203C68.7786 16.9401 68.8854 16.4974 68.8854 15.9922C68.8854 15.5026 68.7786 15.0677 68.5651 14.6875C68.3567 14.3073 68.0703 14.013 67.7057 13.8047C67.3463 13.5911 66.9505 13.4844 66.5182 13.4844C66.0911 13.4844 65.6953 13.5964 65.3307 13.8203C64.9713 14.0391 64.6849 14.3411 64.4713 14.7266C64.263 15.112 64.1588 15.5339 64.1588 15.9922C64.1588 16.4714 64.2656 16.9036 64.4791 17.2891C64.6927 17.6693 64.9791 17.9688 65.3385 18.1875C65.7031 18.401 66.0989 18.5078 66.526 18.5078Z" fill="#012345"/>
<path d="M80.0573 15.8516C80.0573 16.0286 80.0442 16.2422 80.0182 16.4922H73.7448C73.8073 16.9193 73.9427 17.2891 74.151 17.6016C74.3645 17.9141 74.6276 18.1536 74.9401 18.3203C75.2578 18.4818 75.6015 18.5625 75.9713 18.5625C76.4401 18.5625 76.8229 18.4714 77.1198 18.2891C77.4218 18.1016 77.6432 17.8333 77.7838 17.4844H79.8463C79.7057 17.9792 79.4583 18.4375 79.1041 18.8594C78.75 19.2812 78.3046 19.6198 77.7682 19.875C77.2369 20.125 76.651 20.25 76.0104 20.25C75.2239 20.25 74.513 20.0599 73.8776 19.6797C73.2421 19.2995 72.7448 18.7839 72.3854 18.1328C72.026 17.4818 71.8463 16.7682 71.8463 15.9922C71.8463 15.2161 72.026 14.5026 72.3854 13.8516C72.7448 13.2005 73.2421 12.6849 73.8776 12.3047C74.513 11.9245 75.2239 11.7344 76.0104 11.7344C76.7968 11.7344 77.4974 11.9219 78.1119 12.2969C78.7265 12.6719 79.2031 13.1745 79.5416 13.8047C79.8854 14.4297 80.0573 15.112 80.0573 15.8516ZM78.1276 15.0312C78.1015 14.7344 77.9895 14.4609 77.7916 14.2109C77.5937 13.9557 77.3359 13.7552 77.0182 13.6094C76.7057 13.4583 76.3671 13.3828 76.0026 13.3828C75.4974 13.3828 75.0442 13.5234 74.6432 13.8047C74.2474 14.0807 73.9739 14.4896 73.8229 15.0312H78.1276Z" fill="#012345"/>
<path d="M81.6041 9H83.4948V20.0078H81.6041V9Z" fill="#012345"/>
<path d="M88.9244 20.25C88.2161 20.25 87.5729 20.0599 86.9948 19.6797C86.4166 19.2995 85.9635 18.7839 85.6354 18.1328C85.3073 17.4818 85.1432 16.7682 85.1432 15.9922C85.1432 15.2214 85.3073 14.5104 85.6354 13.8594C85.9687 13.2083 86.4218 12.6927 86.9948 12.3125C87.5729 11.9271 88.2135 11.7344 88.9166 11.7344C89.5729 11.7344 90.1536 11.8776 90.6588 12.1641C91.1692 12.4453 91.5546 12.8359 91.8151 13.3359V11.9766H93.6119V20.0078H91.8151V18.6562C91.5546 19.1562 91.1692 19.5469 90.6588 19.8281C90.1536 20.1094 89.5755 20.25 88.9244 20.25ZM89.3776 18.5C89.8099 18.5 90.2057 18.3906 90.5651 18.1719C90.9296 17.9479 91.2161 17.6458 91.4244 17.2656C91.6328 16.8802 91.7369 16.4557 91.7369 15.9922C91.7369 15.5339 91.6302 15.1146 91.4166 14.7344C91.2083 14.349 90.9244 14.0443 90.5651 13.8203C90.2057 13.5964 89.8099 13.4844 89.3776 13.4844C88.9453 13.4844 88.5494 13.5911 88.1901 13.8047C87.8307 14.013 87.5442 14.3073 87.3307 14.6875C87.1224 15.0677 87.0182 15.5026 87.0182 15.9922C87.0182 16.4974 87.125 16.9401 87.3385 17.3203C87.552 17.7005 87.8385 17.9922 88.1979 18.1953C88.5573 18.3984 88.9505 18.5 89.3776 18.5Z" fill="#012345"/>
<path d="M97.6354 11.9766V13.2266C97.8698 12.7786 98.2317 12.4193 98.7213 12.1484C99.2161 11.8724 99.7682 11.7344 100.378 11.7344C101.445 11.7344 102.25 12.0729 102.792 12.75C103.333 13.4271 103.604 14.4036 103.604 15.6797V20.0078H101.714V15.7188C101.714 14.9479 101.552 14.3828 101.229 14.0234C100.906 13.6589 100.448 13.4766 99.8541 13.4766C99.4739 13.4766 99.1224 13.5729 98.7994 13.7656C98.4765 13.9531 98.2161 14.2318 98.0182 14.6016C97.8255 14.9661 97.7291 15.401 97.7291 15.9062V20.0078H95.8385V11.9766H97.6354Z" fill="#012345"/>
<path d="M113.401 15.8516C113.401 16.0286 113.388 16.2422 113.362 16.4922H107.089C107.151 16.9193 107.286 17.2891 107.495 17.6016C107.708 17.9141 107.971 18.1536 108.284 18.3203C108.602 18.4818 108.945 18.5625 109.315 18.5625C109.784 18.5625 110.167 18.4714 110.464 18.2891C110.766 18.1016 110.987 17.8333 111.128 17.4844H113.19C113.049 17.9792 112.802 18.4375 112.448 18.8594C112.094 19.2812 111.648 19.6198 111.112 19.875C110.581 20.125 109.995 20.25 109.354 20.25C108.568 20.25 107.857 20.0599 107.221 19.6797C106.586 19.2995 106.089 18.7839 105.729 18.1328C105.37 17.4818 105.19 16.7682 105.19 15.9922C105.19 15.2161 105.37 14.5026 105.729 13.8516C106.089 13.2005 106.586 12.6849 107.221 12.3047C107.857 11.9245 108.568 11.7344 109.354 11.7344C110.141 11.7344 110.841 11.9219 111.456 12.2969C112.07 12.6719 112.547 13.1745 112.885 13.8047C113.229 14.4297 113.401 15.112 113.401 15.8516ZM111.471 15.0312C111.445 14.7344 111.333 14.4609 111.135 14.2109C110.937 13.9557 110.68 13.7552 110.362 13.6094C110.049 13.4583 109.711 13.3828 109.346 13.3828C108.841 13.3828 108.388 13.5234 107.987 13.8047C107.591 14.0807 107.318 14.4896 107.167 15.0312H111.471Z" fill="#012345"/>
<rect width="32" height="32" fill="#FCFCFC"/>
<ellipse cx="11.3333" cy="14.6667" rx="5.33333" ry="5.33333" fill="#012345"/>
<ellipse cx="23.3333" cy="4.66667" rx="2.66667" ry="2.66667" fill="#4959FF"/>
<path d="M10.6666 30C12.6802 30 14.6741 29.6033 16.5344 28.8328C18.3948 28.0622 20.0851 26.9328 21.5089 25.5089C22.9328 24.0851 24.0622 22.3948 24.8328 20.5344C25.6034 18.6741 26 16.6802 26 14.6666H20.48C20.48 15.9553 20.2261 17.2314 19.733 18.422C19.2398 19.6126 18.517 20.6944 17.6057 21.6057C16.6944 22.517 15.6126 23.2398 14.422 23.733C13.2314 24.2261 11.9553 24.48 10.6666 24.48L10.6666 30Z" fill="#4959FF"/>
</svg>
